ply
format ascii 1.0
comment Created by Blender 2.79 (sub 0) - www.blender.org, source file: ''
element vertex 168
property float x
property float y
property float z
element face 332
property list uchar uint vertex_indices
end_header
-2.244962 -0.312183 -1.408428
-2.214736 -0.526151 -1.408428
-2.244963 -0.561436 -1.408428
-2.244963 -0.312183 1.408428
-2.031441 -0.561436 1.408428
-2.031440 -0.312183 1.408428
-2.244963 -0.561436 1.408428
-2.295075 -0.561436 0.984245
-2.244963 -0.561436 0.984245
2.244961 -0.561436 0.984245
2.031435 -0.700324 1.011561
2.031435 -0.561436 0.984245
-2.295074 -0.312183 0.984245
-2.244963 -0.312183 0.984245
-2.031437 0.561436 -1.408428
-2.082754 0.561436 -1.353707
-1.884657 0.561436 -1.353707
-2.031437 0.561436 0.984245
-2.244962 0.561436 1.408428
-2.031437 0.561436 1.408428
-2.244962 0.561436 0.106254
-2.244963 -0.312183 0.106254
-2.031441 -0.561436 0.984245
-2.244963 -0.561436 0.106254
-2.031440 -0.561436 0.106254
2.244962 -0.312183 0.984245
2.244962 -0.561436 0.106254
2.244962 -0.312183 0.106254
-2.031441 -0.700324 1.381112
-2.244963 -0.700324 1.011561
-2.031440 -0.700324 1.011561
-2.244963 -0.700324 1.381112
2.244961 -0.561436 1.408428
2.244961 -0.700324 1.011561
2.297257 -0.312183 1.408428
2.297256 -0.561436 0.984245
2.297257 -0.312183 0.984245
-2.295074 -0.312183 1.408428
-2.295074 0.561436 0.984245
2.244963 0.561436 1.408428
2.297258 0.561436 0.984245
2.244963 0.561436 0.984245
-2.295074 0.561436 1.408428
-2.244962 0.561436 0.984245
2.244962 -0.312183 1.408428
2.297256 -0.561436 1.408428
2.244962 -0.561436 -1.408428
2.244962 -0.312183 -1.408428
-2.244962 0.561436 -1.408428
-2.167465 0.561436 0.147939
-2.167465 0.561436 0.942560
-2.167465 -0.015176 0.147939
-2.031437 0.561436 0.106254
-1.961311 0.561436 0.147939
2.031440 0.561436 0.984245
2.167466 0.561436 0.942560
1.961313 0.561436 0.942560
2.244963 0.561436 0.106254
-1.961311 -0.015176 0.147939
-2.167465 -0.015176 0.942560
-1.961311 -0.015176 0.942560
1.961313 -0.015176 0.942560
2.167466 0.561436 0.147939
2.167466 -0.015176 0.942560
2.082755 1.201435 -1.353707
2.082755 1.347657 0.051534
2.082755 1.201435 0.051534
2.031440 0.561436 0.106254
2.082755 0.561436 0.051533
1.884660 0.561436 0.051533
-2.082755 0.561436 0.051533
2.082755 0.561436 -1.353707
-1.884657 1.347657 -1.353706
-2.082755 1.347657 0.051534
-1.884658 1.347657 0.051534
-2.082754 1.201435 0.051534
-2.082754 1.347657 -1.353707
-2.082754 1.201435 -1.353707
1.884660 1.347657 0.051534
1.884660 1.201435 0.051534
1.884659 0.561436 -1.353707
1.907196 0.691022 -1.353707
1.907197 0.578071 -1.353707
-2.082754 0.707658 -1.353707
-2.060217 0.578072 -1.353707
1.884659 1.347657 -1.353706
1.884659 1.201435 -1.353706
-1.884657 1.201435 -1.353706
0.004624 1.347657 -1.353706
-1.884658 1.201435 0.051534
0.004624 1.347657 0.051534
-1.758079 1.328122 -1.306574
-1.884658 0.561436 0.051533
1.961313 0.561436 0.147939
2.167466 -0.015176 0.147939
1.961313 -0.015176 0.147939
-1.961311 0.561436 0.942560
2.031438 -0.561436 -1.408428
2.031436 -0.561436 0.106254
-2.031439 -0.561436 -1.408428
2.031435 -0.561436 1.408428
2.244961 -0.700324 1.381112
2.031435 -0.700324 1.381112
2.031440 0.561436 1.408428
2.031439 0.561436 -1.408428
2.244962 0.561436 -1.408428
2.031436 -0.312183 1.408428
2.061665 -0.347467 -1.408428
2.031438 -0.312183 -1.408428
-2.031438 -0.312183 -1.408428
2.297259 0.561436 1.408428
-2.295075 -0.561436 1.408428
-1.884658 0.707658 0.051533
1.884660 0.707658 0.051533
-2.082754 0.707658 0.051533
1.884659 0.707658 -1.353706
-1.884657 0.707658 -1.353706
2.060218 0.578071 -1.353707
2.082755 0.707658 -1.353707
-1.907195 0.691022 -1.353706
2.082755 0.707657 0.051533
-2.061665 -0.526151 -1.408428
-2.202587 -0.511970 -1.517376
-2.073814 -0.511970 -1.517376
-2.073814 -0.361649 -1.517376
-2.061665 -0.347467 -1.408428
2.061665 -0.526152 -1.408428
2.214736 -0.526152 -1.408428
-2.214736 -0.347467 -1.408428
2.214736 -0.347467 -1.408428
-2.060217 1.331021 -1.353707
-1.925205 1.317727 -1.520156
-2.042207 1.317728 -1.520156
2.042208 0.677728 -1.520156
1.925206 0.677728 -1.520156
2.060218 1.218070 -1.353707
1.925206 1.231364 -1.520156
2.042208 1.231364 -1.520156
-1.907194 1.218071 -1.353706
-1.907195 1.331021 -1.353706
2.082755 1.347657 -1.353707
1.907196 1.331021 -1.353706
-2.060217 0.691022 -1.353707
1.907196 1.218071 -1.353706
2.060218 1.331021 -1.353707
2.060218 0.691022 -1.353707
-2.060217 1.218071 -1.353707
-1.907195 0.578072 -1.353707
-2.202587 -0.361649 -1.517376
2.202587 -0.511970 -1.517376
2.073814 -0.361649 -1.517376
2.202587 -0.361649 -1.517376
2.073813 -0.511970 -1.517376
-2.042207 1.231365 -1.520156
-1.925205 1.231364 -1.520156
2.042208 1.317727 -1.520156
1.925206 0.591365 -1.520156
2.042208 0.591365 -1.520156
-2.042207 0.591365 -1.520156
-1.925205 0.677728 -1.520156
-1.925205 0.591365 -1.520156
1.925206 1.317727 -1.520156
-2.042207 0.677729 -1.520156
1.758391 1.328122 -1.306574
0.004469 1.328122 0.004402
1.758391 1.328122 0.004402
0.004469 1.328122 -1.306574
-1.758079 1.328122 0.004402
3 0 1 2
3 3 4 5
3 6 7 8
3 9 10 11
3 8 12 13
3 14 15 16
3 17 18 19
3 13 20 21
3 22 23 24
3 25 26 27
3 28 29 30
3 6 28 4
3 8 31 6
3 32 33 9
3 34 35 36
3 37 38 12
3 39 40 41
3 41 36 25
3 3 42 37
3 43 42 18
3 44 45 34
3 9 45 32
3 27 46 47
3 2 24 23
3 21 48 0
3 43 49 20
3 50 51 49
3 52 49 53
3 54 55 56
3 57 55 41
3 58 59 60
3 55 61 56
3 49 58 53
3 62 63 55
3 64 65 66
3 67 68 69
3 48 70 15
3 57 71 68
3 72 73 74
3 75 76 77
3 66 78 79
3 80 81 82
3 83 84 15
3 85 86 87
3 87 72 88
3 87 88 85
3 75 74 73
3 74 89 79
3 79 78 90
3 79 90 74
3 65 85 78
3 74 91 72
3 52 70 20
3 52 69 92
3 93 94 62
3 53 95 93
3 96 59 50
3 56 60 96
3 94 61 63
3 95 60 61
3 17 50 43
3 17 56 96
3 67 62 57
3 52 93 67
3 26 97 46
3 98 99 97
3 100 101 32
3 4 102 100
3 101 10 33
3 102 30 10
3 9 98 26
3 11 24 98
3 41 103 39
3 54 19 103
3 104 71 105
3 14 80 104
3 22 29 8
3 11 30 22
3 106 32 44
3 5 100 106
3 47 107 108
3 97 109 108
3 108 14 104
3 47 104 105
3 19 106 103
3 103 44 39
3 23 0 2
3 57 47 105
3 39 34 110
3 6 37 111
3 25 35 9
3 111 12 7
3 110 36 40
3 41 27 57
3 8 21 23
3 13 38 43
3 18 5 19
3 109 48 14
3 69 112 92
3 113 89 112
3 92 114 70
3 112 75 114
3 16 115 80
3 116 86 115
3 71 82 117
3 115 64 118
3 16 119 116
3 83 87 116
3 69 120 113
3 113 66 79
3 70 83 15
3 114 77 83
3 71 120 68
3 120 64 66
3 121 122 123
3 121 124 125
3 97 107 126
3 46 126 127
3 0 125 128
3 109 121 125
3 99 1 121
3 47 127 129
3 130 131 132
3 81 133 134
3 135 136 137
3 138 131 139
3 140 141 85
3 76 139 130
3 77 138 87
3 83 119 142
3 72 138 139
3 85 143 86
3 64 144 140
3 86 135 64
3 71 145 118
3 76 146 77
3 15 147 16
3 118 81 115
3 123 148 124
3 149 150 151
3 107 151 150
3 126 149 127
3 125 148 128
3 1 148 122
3 107 152 126
3 129 149 151
3 153 131 154
3 136 155 137
3 156 133 157
3 158 159 160
3 84 160 147
3 143 161 136
3 147 159 119
3 144 161 141
3 82 157 117
3 82 134 156
3 146 154 138
3 142 158 84
3 130 153 146
3 117 133 145
3 142 159 162
3 135 155 144
3 163 164 165
3 90 165 164
3 166 167 164
3 88 91 166
3 90 167 74
3 88 163 85
3 78 163 165
3 0 128 1
3 3 6 4
3 6 111 7
3 9 33 10
3 8 7 12
3 14 48 15
3 17 43 18
3 13 43 20
3 22 8 23
3 25 9 26
3 28 31 29
3 6 31 28
3 8 29 31
3 32 101 33
3 34 45 35
3 37 42 38
3 39 110 40
3 41 40 36
3 3 18 42
3 43 38 42
3 44 32 45
3 9 35 45
3 27 26 46
3 2 99 24
3 21 20 48
3 43 50 49
3 50 59 51
3 52 20 49
3 54 41 55
3 57 62 55
3 58 51 59
3 55 63 61
3 49 51 58
3 62 94 63
3 64 140 65
3 67 57 68
3 48 20 70
3 57 105 71
3 72 76 73
3 75 73 76
3 66 65 78
3 80 115 81
3 83 142 84
3 75 89 74
3 65 140 85
3 74 167 91
3 52 92 70
3 52 67 69
3 93 95 94
3 53 58 95
3 96 60 59
3 56 61 60
3 94 95 61
3 95 58 60
3 17 96 50
3 17 54 56
3 67 93 62
3 52 53 93
3 26 98 97
3 98 24 99
3 100 102 101
3 4 28 102
3 101 102 10
3 102 28 30
3 9 11 98
3 11 22 24
3 41 54 103
3 54 17 19
3 104 80 71
3 14 16 80
3 22 30 29
3 11 10 30
3 106 100 32
3 5 4 100
3 47 129 107
3 97 99 109
3 108 109 14
3 47 108 104
3 19 5 106
3 103 106 44
3 23 21 0
3 57 27 47
3 39 44 34
3 6 3 37
3 25 36 35
3 111 37 12
3 110 34 36
3 41 25 27
3 8 13 21
3 13 12 38
3 18 3 5
3 109 0 48
3 69 113 112
3 113 79 89
3 92 112 114
3 112 89 75
3 16 116 115
3 116 87 86
3 71 80 82
3 115 86 64
3 16 147 119
3 83 77 87
3 69 68 120
3 113 120 66
3 70 114 83
3 114 75 77
3 71 118 120
3 120 118 64
3 121 1 122
3 121 123 124
3 97 108 107
3 46 97 126
3 0 109 125
3 109 99 121
3 99 2 1
3 47 46 127
3 130 139 131
3 81 145 133
3 135 143 136
3 138 154 131
3 140 144 141
3 76 72 139
3 77 146 138
3 83 116 119
3 72 87 138
3 85 141 143
3 64 135 144
3 86 143 135
3 71 117 145
3 76 130 146
3 15 84 147
3 118 145 81
3 123 122 148
3 149 152 150
3 107 129 151
3 126 152 149
3 125 124 148
3 1 128 148
3 107 150 152
3 129 127 149
3 153 132 131
3 136 161 155
3 156 134 133
3 158 162 159
3 84 158 160
3 143 141 161
3 147 160 159
3 144 155 161
3 82 156 157
3 82 81 134
3 146 153 154
3 142 162 158
3 130 132 153
3 117 157 133
3 142 119 159
3 135 137 155
3 163 166 164
3 90 78 165
3 166 91 167
3 88 72 91
3 90 164 167
3 88 166 163
3 78 85 163
