ply
format ascii 1.0
comment Created by Blender 2.79 (sub 0) - www.blender.org, source file: ''
element vertex 144
property float x
property float y
property float z
element face 72
property list uchar uint vertex_indices
end_header
0.384387 -0.298396 -0.286022
0.384387 -0.298396 -0.219353
0.384387 0.067772 -0.219353
0.384387 0.067772 -0.286021
0.451056 -0.298396 -0.286022
0.384387 -0.298396 -0.286022
0.384387 0.067772 -0.286021
0.451056 0.067772 -0.286021
0.451056 -0.298396 -0.219353
0.451056 -0.298396 -0.286022
0.451056 0.067772 -0.286021
0.451056 0.067772 -0.219353
0.384387 -0.298396 -0.219353
0.451056 -0.298396 -0.219353
0.451056 0.067772 -0.219353
0.384387 0.067772 -0.219353
0.384387 -0.298396 -0.219353
0.384387 -0.298396 -0.286022
0.451056 -0.298396 -0.286022
0.451056 -0.298396 -0.219353
0.451056 0.067772 -0.219353
0.451056 0.067772 -0.286021
0.384387 0.067772 -0.286021
0.384387 0.067772 -0.219353
-0.452083 0.068149 -0.287307
0.452083 0.068149 -0.287307
0.452083 0.068149 0.287307
-0.452083 0.068149 0.287307
0.452083 0.116397 0.287307
0.452083 0.116397 -0.287307
-0.452083 0.116397 -0.287307
-0.452083 0.116397 0.287307
0.452083 0.116397 -0.287307
0.452083 0.068149 -0.287307
-0.452083 0.068149 -0.287307
-0.452083 0.116397 -0.287307
0.452083 0.116397 0.287307
0.452083 0.068149 0.287307
0.452083 0.068149 -0.287307
0.452083 0.116397 -0.287307
-0.383770 -0.116397 -0.287307
0.383770 -0.116397 -0.287307
0.383770 -0.116397 0.287307
-0.383770 -0.116397 0.287307
0.383770 -0.098013 0.287307
0.383770 -0.098013 -0.287307
-0.383770 -0.098013 -0.287307
-0.383770 -0.098013 0.287307
0.383770 -0.098013 -0.287307
0.383770 -0.116397 -0.287307
-0.383770 -0.116397 -0.287307
-0.383770 -0.098013 -0.287307
0.383770 -0.098013 0.287307
0.383770 -0.116397 0.287307
0.383770 -0.116397 -0.287307
0.383770 -0.098013 -0.287307
-0.384387 0.067772 -0.219353
-0.384387 -0.298396 -0.219353
-0.384387 -0.298396 -0.286022
-0.384387 0.067772 -0.286021
-0.384387 0.067772 -0.286021
-0.384387 -0.298396 -0.286022
-0.451056 -0.298396 -0.286022
-0.451056 0.067772 -0.286021
-0.451056 0.067772 -0.286021
-0.451056 -0.298396 -0.286022
-0.451056 -0.298396 -0.219353
-0.451056 0.067772 -0.219353
-0.451056 0.067772 -0.219353
-0.451056 -0.298396 -0.219353
-0.384387 -0.298396 -0.219353
-0.384387 0.067772 -0.219353
-0.451056 -0.298396 -0.286022
-0.384387 -0.298396 -0.286022
-0.384387 -0.298396 -0.219353
-0.451056 -0.298396 -0.219353
-0.384387 0.067772 -0.286021
-0.451056 0.067772 -0.286021
-0.451056 0.067772 -0.219353
-0.384387 0.067772 -0.219353
-0.452083 0.068149 -0.287307
-0.452083 0.068149 0.287307
-0.452083 0.116397 0.287307
-0.452083 0.116397 -0.287307
-0.383770 -0.116397 -0.287307
-0.383770 -0.116397 0.287307
-0.383770 -0.098013 0.287307
-0.383770 -0.098013 -0.287307
0.384387 0.067772 0.219353
0.384387 -0.298396 0.219353
0.384387 -0.298396 0.286021
0.384387 0.067772 0.286021
0.384387 0.067772 0.286021
0.384387 -0.298396 0.286021
0.451056 -0.298396 0.286021
0.451056 0.067772 0.286021
0.451056 0.067772 0.286021
0.451056 -0.298396 0.286021
0.451056 -0.298396 0.219353
0.451056 0.067772 0.219353
0.451056 0.067772 0.219353
0.451056 -0.298396 0.219353
0.384387 -0.298396 0.219353
0.384387 0.067772 0.219353
0.451056 -0.298396 0.286021
0.384387 -0.298396 0.286021
0.384387 -0.298396 0.219353
0.451056 -0.298396 0.219353
0.384387 0.067772 0.286021
0.451056 0.067772 0.286021
0.451056 0.067772 0.219353
0.384387 0.067772 0.219353
-0.452083 0.068149 0.287307
0.452083 0.068149 0.287307
0.452083 0.116397 0.287307
-0.452083 0.116397 0.287307
-0.383770 -0.116397 0.287307
0.383770 -0.116397 0.287307
0.383770 -0.098013 0.287307
-0.383770 -0.098013 0.287307
-0.384387 -0.298396 0.286021
-0.384387 -0.298396 0.219353
-0.384387 0.067772 0.219353
-0.384387 0.067772 0.286021
-0.451056 -0.298396 0.286021
-0.384387 -0.298396 0.286021
-0.384387 0.067772 0.286021
-0.451056 0.067772 0.286021
-0.451056 -0.298396 0.219353
-0.451056 -0.298396 0.286021
-0.451056 0.067772 0.286021
-0.451056 0.067772 0.219353
-0.384387 -0.298396 0.219353
-0.451056 -0.298396 0.219353
-0.451056 0.067772 0.219353
-0.384387 0.067772 0.219353
-0.384387 -0.298396 0.219353
-0.384387 -0.298396 0.286021
-0.451056 -0.298396 0.286021
-0.451056 -0.298396 0.219353
-0.451056 0.067772 0.219353
-0.451056 0.067772 0.286021
-0.384387 0.067772 0.286021
-0.384387 0.067772 0.219353
3 0 1 2
3 2 3 0
3 4 5 6
3 6 7 4
3 8 9 10
3 10 11 8
3 12 13 14
3 14 15 12
3 16 17 18
3 18 19 16
3 20 21 22
3 22 23 20
3 24 25 26
3 26 27 24
3 28 29 30
3 30 31 28
3 32 33 34
3 34 35 32
3 36 37 38
3 38 39 36
3 40 41 42
3 42 43 40
3 44 45 46
3 46 47 44
3 48 49 50
3 50 51 48
3 52 53 54
3 54 55 52
3 56 57 58
3 58 59 56
3 60 61 62
3 62 63 60
3 64 65 66
3 66 67 64
3 68 69 70
3 70 71 68
3 72 73 74
3 74 75 72
3 76 77 78
3 78 79 76
3 80 81 82
3 82 83 80
3 84 85 86
3 86 87 84
3 88 89 90
3 90 91 88
3 92 93 94
3 94 95 92
3 96 97 98
3 98 99 96
3 100 101 102
3 102 103 100
3 104 105 106
3 106 107 104
3 108 109 110
3 110 111 108
3 112 113 114
3 114 115 112
3 116 117 118
3 118 119 116
3 120 121 122
3 122 123 120
3 124 125 126
3 126 127 124
3 128 129 130
3 130 131 128
3 132 133 134
3 134 135 132
3 136 137 138
3 138 139 136
3 140 141 142
3 142 143 140
