ply
format ascii 1.0
comment Created by Blender 2.79 (sub 0) - www.blender.org, source file: ''
element vertex 25
property float x
property float y
property float z
element face 32
property list uchar uint vertex_indices
end_header
2.609073 -0.014168 -0.022822
1.969073 0.345832 -0.022822
1.969073 -0.014168 -0.022822
1.329073 -0.014168 -0.022822
0.689073 0.345832 -0.022822
0.689073 -0.014168 -0.022822
1.329073 -0.734168 -0.022822
0.689073 -0.374168 -0.022822
0.689073 -0.734168 -0.022822
2.609073 -0.734168 -0.022822
1.969073 -0.374168 -0.022822
1.969073 -0.734168 -0.022822
1.329073 -0.374168 -0.022822
1.969073 -1.094168 -0.022822
1.329073 -1.094168 -0.022822
2.609073 -1.094168 -0.022822
0.049073 -0.374168 -0.022822
0.049073 -0.734168 -0.022822
0.689073 -1.094168 -0.022822
0.049073 -1.094168 -0.022822
0.049073 0.345832 -0.022822
0.049073 -0.014168 -0.022822
1.329073 0.345832 -0.022822
2.609073 -0.374168 -0.022822
2.609073 0.345832 -0.022822
3 0 1 2
3 3 4 5
3 6 7 8
3 9 10 11
3 11 12 6
3 13 6 14
3 15 11 13
3 8 16 17
3 18 17 19
3 14 8 18
3 5 20 21
3 7 21 16
3 12 5 7
3 2 22 3
3 10 3 12
3 23 2 10
3 0 24 1
3 3 22 4
3 6 12 7
3 9 23 10
3 11 10 12
3 13 11 6
3 15 9 11
3 8 7 16
3 18 8 17
3 14 6 8
3 5 4 20
3 7 5 21
3 12 3 5
3 2 1 22
3 10 2 3
3 23 0 2
